<svg xmlns="http://www.w3.org/2000/svg" width="1084" height="322" viewBox="0 0 1084 322" fill="none">
  <defs>
    <filter id="glow-soft" x="-50%" y="-50%" width="200%" height="200%">
      <feGaussianBlur stdDeviation="3.5" result="blur"/>
      <feMerge>
        <feMergeNode in="blur"/>
        <feMergeNode in="SourceGraphic"/>
      </feMerge>
    </filter>

    <filter id="glow-strong" x="-50%" y="-50%" width="200%" height="200%">
      <feGaussianBlur stdDeviation="6" result="blur1"/>
      <feGaussianBlur in="SourceGraphic" stdDeviation="1.5" result="blur2"/>
      <feMerge>
        <feMergeNode in="blur1"/>
        <feMergeNode in="blur2"/>
        <feMergeNode in="SourceGraphic"/>
      </feMerge>
    </filter>

    <linearGradient id="pulseGrad" x1="0" y1="0" x2="1" y2="0">
      <stop offset="0%" stop-color="#8ffcff" stop-opacity="0"/>
      <stop offset="15%" stop-color="#96fdff" stop-opacity="0.08"/>
      <stop offset="35%" stop-color="#a6ffff" stop-opacity="0.55"/>
      <stop offset="50%" stop-color="#f7ffff" stop-opacity="1"/>
      <stop offset="65%" stop-color="#a6ffff" stop-opacity="0.55"/>
      <stop offset="85%" stop-color="#96fdff" stop-opacity="0.08"/>
      <stop offset="100%" stop-color="#8ffcff" stop-opacity="0"/>
    </linearGradient>

    <g id="trace-set-base" stroke-linecap="round" stroke-linejoin="round">
      <path id="p1" d="M-40 48 C 10 48, 20 48, 50 48 S 95 48, 115 48 C 132 48, 138 36, 148 28 S 182 12, 196 12 H 268 C 286 12, 292 28, 304 38 S 332 56, 346 56 H 566 C 582 56, 590 72, 602 82 S 630 100, 648 100 H 738 C 754 100, 762 82, 774 72 S 802 44, 818 44 H 1128"/>
      <path id="p2" d="M-40 74 H 36 C 52 74, 58 90, 70 100 S 98 118, 114 118 H 262 C 280 118, 288 102, 300 92 S 328 64, 344 64 H 530 C 546 64, 554 80, 566 90 S 594 108, 610 108 H 738 C 754 108, 762 92, 774 82 S 802 54, 818 54 H 1128"/>
      <path id="p3" d="M-40 102 H 178 C 194 102, 202 118, 214 128 S 242 146, 258 146 H 452 C 470 146, 478 130, 490 120 S 518 92, 534 92 H 1128"/>
      <path id="p4" d="M-40 134 H 318 C 334 134, 342 150, 354 160 S 382 178, 398 178 H 590 C 608 178, 616 162, 628 152 S 656 124, 672 124 H 1128"/>
      <path id="p5" d="M-40 164 H 92 C 110 164, 118 180, 130 190 S 158 208, 176 208 H 436 C 452 208, 460 192, 472 182 S 500 154, 516 154 H 736 C 752 154, 760 170, 772 180 S 800 198, 816 198 H 1128"/>
      <path id="p6" d="M-40 196 H 250 C 268 196, 276 212, 288 222 S 316 240, 334 240 H 522 C 538 240, 546 224, 558 214 S 586 186, 602 186 H 1128"/>
      <path id="p7" d="M-40 226 H 120 C 136 226, 144 242, 156 252 S 184 270, 200 270 H 322 C 340 270, 348 254, 360 244 S 388 216, 406 216 H 616 C 632 216, 640 232, 652 242 S 680 260, 696 260 H 1128"/>
      <path id="p8" d="M-40 254 H 146 C 164 254, 172 270, 184 280 S 212 298, 230 298 H 548 C 564 298, 572 282, 584 272 S 612 244, 628 244 H 1128"/>
      <path id="p9" d="M-40 284 H 86 C 102 284, 110 300, 122 310 S 150 328, 166 328 H 430 C 448 328, 456 312, 468 302 S 496 274, 514 274 H 1128"/>
      <path id="p10" d="M58 38 C 74 38, 82 22, 94 12 S 122 -16, 138 -16"/>
      <path id="p11" d="M730 132 C 746 132, 754 116, 766 106 S 794 78, 810 78 H 922 C 940 78, 948 62, 960 52 S 988 24, 1006 24 H 1128"/>
      <path id="p12" d="M664 246 C 680 246, 688 230, 700 220 S 728 192, 744 192 H 852 C 870 192, 878 176, 890 166 S 918 138, 936 138 H 1128"/>
    </g>

    <mask id="m1"><rect width="1084" height="322" fill="black"/><rect x="-110" y="-7" width="220" height="14" rx="7" fill="url(#pulseGrad)"><animateMotion dur="4.2s" begin="0s" calcMode="linear" keyTimes="0;1" keyPoints="0;1" repeatCount="indefinite" rotate="auto"><mpath href="#p1"/></animateMotion></rect></mask>
    <mask id="m2"><rect width="1084" height="322" fill="black"/><rect x="-92" y="-7" width="184" height="14" rx="7" fill="url(#pulseGrad)"><animateMotion dur="3.8s" begin="-1.6s" calcMode="linear" keyTimes="0;1" keyPoints="0;1" repeatCount="indefinite" rotate="auto"><mpath href="#p2"/></animateMotion></rect></mask>
    <mask id="m3"><rect width="1084" height="322" fill="black"/><rect x="-88" y="-7" width="176" height="14" rx="7" fill="url(#pulseGrad)"><animateMotion dur="4.5s" begin="-0.7s" calcMode="linear" keyTimes="0;1" keyPoints="0;1" repeatCount="indefinite" rotate="auto"><mpath href="#p3"/></animateMotion></rect></mask>
    <mask id="m4"><rect width="1084" height="322" fill="black"/><rect x="-82" y="-7" width="164" height="14" rx="7" fill="url(#pulseGrad)"><animateMotion dur="3.9s" begin="-2.3s" calcMode="linear" keyTimes="0;1" keyPoints="0;1" repeatCount="indefinite" rotate="auto"><mpath href="#p4"/></animateMotion></rect></mask>
    <mask id="m5"><rect width="1084" height="322" fill="black"/><rect x="-104" y="-7" width="208" height="14" rx="7" fill="url(#pulseGrad)"><animateMotion dur="4.4s" begin="-1.1s" calcMode="linear" keyTimes="0;1" keyPoints="0;1" repeatCount="indefinite" rotate="auto"><mpath href="#p5"/></animateMotion></rect></mask>
    <mask id="m6"><rect width="1084" height="322" fill="black"/><rect x="-90" y="-7" width="180" height="14" rx="7" fill="url(#pulseGrad)"><animateMotion dur="4.0s" begin="-3.1s" calcMode="linear" keyTimes="0;1" keyPoints="0;1" repeatCount="indefinite" rotate="auto"><mpath href="#p6"/></animateMotion></rect></mask>
    <mask id="m7"><rect width="1084" height="322" fill="black"/><rect x="-84" y="-7" width="168" height="14" rx="7" fill="url(#pulseGrad)"><animateMotion dur="4.6s" begin="-2.1s" calcMode="linear" keyTimes="0;1" keyPoints="0;1" repeatCount="indefinite" rotate="auto"><mpath href="#p7"/></animateMotion></rect></mask>
    <mask id="m8"><rect width="1084" height="322" fill="black"/><rect x="-78" y="-7" width="156" height="14" rx="7" fill="url(#pulseGrad)"><animateMotion dur="4.1s" begin="-0.9s" calcMode="linear" keyTimes="0;1" keyPoints="0;1" repeatCount="indefinite" rotate="auto"><mpath href="#p8"/></animateMotion></rect></mask>
    <mask id="m9"><rect width="1084" height="322" fill="black"/><rect x="-72" y="-7" width="144" height="14" rx="7" fill="url(#pulseGrad)"><animateMotion dur="4.8s" begin="-2.8s" calcMode="linear" keyTimes="0;1" keyPoints="0;1" repeatCount="indefinite" rotate="auto"><mpath href="#p9"/></animateMotion></rect></mask>
    <mask id="m10"><rect width="1084" height="322" fill="black"/><rect x="-42" y="-6" width="84" height="12" rx="6" fill="url(#pulseGrad)"><animateMotion dur="2.8s" begin="-1.2s" calcMode="linear" keyTimes="0;1" keyPoints="0;1" repeatCount="indefinite" rotate="auto"><mpath href="#p10"/></animateMotion></rect></mask>
    <mask id="m11"><rect width="1084" height="322" fill="black"/><rect x="-66" y="-6" width="132" height="12" rx="6" fill="url(#pulseGrad)"><animateMotion dur="3.5s" begin="-2.4s" calcMode="linear" keyTimes="0;1" keyPoints="0;1" repeatCount="indefinite" rotate="auto"><mpath href="#p11"/></animateMotion></rect></mask>
    <mask id="m12"><rect width="1084" height="322" fill="black"/><rect x="-66" y="-6" width="132" height="12" rx="6" fill="url(#pulseGrad)"><animateMotion dur="3.7s" begin="-0.4s" calcMode="linear" keyTimes="0;1" keyPoints="0;1" repeatCount="indefinite" rotate="auto"><mpath href="#p12"/></animateMotion></rect></mask>
  </defs>

  <g opacity="0.95">
    <g filter="url(#glow-soft)">
      <use href="#trace-set-base" stroke="#177fbe" stroke-opacity="0.9" stroke-width="8"/>
      <use href="#trace-set-base" stroke="#a6f7ff" stroke-opacity="0.95" stroke-width="2.2"/>
    </g>

    <g filter="url(#glow-strong)">
      <use href="#p1" stroke="url(#pulseGrad)" stroke-width="6" mask="url(#m1)" stroke-linecap="round" stroke-linejoin="round"/>
      <use href="#p2" stroke="url(#pulseGrad)" stroke-width="6" mask="url(#m2)" stroke-linecap="round" stroke-linejoin="round"/>
      <use href="#p3" stroke="url(#pulseGrad)" stroke-width="6" mask="url(#m3)" stroke-linecap="round" stroke-linejoin="round"/>
      <use href="#p4" stroke="url(#pulseGrad)" stroke-width="6" mask="url(#m4)" stroke-linecap="round" stroke-linejoin="round"/>
      <use href="#p5" stroke="url(#pulseGrad)" stroke-width="6" mask="url(#m5)" stroke-linecap="round" stroke-linejoin="round"/>
      <use href="#p6" stroke="url(#pulseGrad)" stroke-width="6" mask="url(#m6)" stroke-linecap="round" stroke-linejoin="round"/>
      <use href="#p7" stroke="url(#pulseGrad)" stroke-width="6" mask="url(#m7)" stroke-linecap="round" stroke-linejoin="round"/>
      <use href="#p8" stroke="url(#pulseGrad)" stroke-width="6" mask="url(#m8)" stroke-linecap="round" stroke-linejoin="round"/>
      <use href="#p9" stroke="url(#pulseGrad)" stroke-width="6" mask="url(#m9)" stroke-linecap="round" stroke-linejoin="round"/>
      <use href="#p10" stroke="url(#pulseGrad)" stroke-width="5" mask="url(#m10)" stroke-linecap="round" stroke-linejoin="round"/>
      <use href="#p11" stroke="url(#pulseGrad)" stroke-width="5" mask="url(#m11)" stroke-linecap="round" stroke-linejoin="round"/>
      <use href="#p12" stroke="url(#pulseGrad)" stroke-width="5" mask="url(#m12)" stroke-linecap="round" stroke-linejoin="round"/>
    </g>
  </g>
</svg>